<?xml version="1.0" standalone="yes"?><svg xmlns="http://www.w3.org/2000/svg" viewBox="0 0 128 128" enable-background="new 0 0 128 128" style="zoom: 1;"><g fill="#61DAFB"><circle cx="64" cy="64" r="11.4"></circle><path d="M107.3,45.2 c-2.2,-.8 -4.5,-1.6 -6.9,-2.3 c.6,-2.4 1.1,-4.8 1.5,-7.1 c2.1,-13.2 -.2,-22.5 -6.6,-26.1 c-1.9,-1.1 -4,-1.6 -6.4,-1.6 c-7,0 -15.9,5.2 -24.9,13.9 c-9,-8.7 -17.9,-13.9 -24.9,-13.9 c-2.4,0 -4.5,.5 -6.4,1.6 c-6.4,3.7 -8.7,13 -6.6,26.1 c.4,2.3 .9,4.7 1.5,7.1 c-2.4,.7 -4.7,1.4 -6.9,2.3 c-12.5,4.8 -19.3,11.4 -19.3,18.8 s6.9,14 19.3,18.8 c2.2,.8 4.5,1.6 6.9,2.3 c-.6,2.4 -1.1,4.8 -1.5,7.1 c-2.1,13.2 .2,22.5 6.6,26.1 c1.9,1.1 4,1.6 6.4,1.6 c7.1,0 16,-5.2 24.9,-13.9 c9,8.7 17.9,13.9 24.9,13.9 c2.4,0 4.5,-.5 6.4,-1.6 c6.4,-3.7 8.7,-13 6.6,-26.1 c-.4,-2.3 -.9,-4.7 -1.5,-7.1 c2.4,-.7 4.7,-1.4 6.9,-2.3 c12.5,-4.8 19.3,-11.4 19.3,-18.8 s-6.8,-14 -19.3,-18.8 m-14.8,-30.5 c4.1,2.4 5.5,9.8 3.8,20.3 c-.3,2.1 -.8,4.3 -1.4,6.6 c-5.2,-1.2 -10.7,-2 -16.5,-2.5 c-3.4,-4.8 -6.9,-9.1 -10.4,-13 c7.4,-7.3 14.9,-12.3 21,-12.3 c1.3,0 2.5,.3 3.5,.9 m-11.2,59.3 c-1.8,3.2 -3.9,6.4 -6.1,9.6 c-3.7,.3 -7.4,.4 -11.2,.4 c-3.9,0 -7.6,-.1 -11.2,-.4 c-2.2,-3.2 -4.2,-6.4 -6,-9.6 c-1.9,-3.3 -3.7,-6.7 -5.3,-10 c1.6,-3.3 3.4,-6.7 5.3,-10 c1.8,-3.2 3.9,-6.4 6.1,-9.6 c3.7,-.3 7.4,-.4 11.2,-.4 c3.9,0 7.6,.1 11.2,.4 c2.2,3.2 4.2,6.4 6,9.6 c1.9,3.3 3.7,6.7 5.3,10 c-1.7,3.3 -3.4,6.6 -5.3,10 m8.3,-3.3 c1.5,3.5 2.7,6.9 3.8,10.3 c-3.4,.8 -7,1.4 -10.8,1.9 c1.2,-1.9 2.5,-3.9 3.6,-6 c1.2,-2.1 2.3,-4.2 3.4,-6.2 m-25.6,27.1 c-2.4,-2.6 -4.7,-5.4 -6.9,-8.3 c2.3,.1 4.6,.2 6.9,.2 c2.3,0 4.6,-.1 6.9,-.2 c-2.2,2.9 -4.5,5.7 -6.9,8.3 m-18.6,-15 c-3.8,-.5 -7.4,-1.1 -10.8,-1.9 c1.1,-3.3 2.3,-6.8 3.8,-10.3 c1.1,2 2.2,4.1 3.4,6.1 c1.2,2.2 2.4,4.1 3.6,6.1 m-7,-25.5 c-1.5,-3.5 -2.7,-6.9 -3.8,-10.3 c3.4,-.8 7,-1.4 10.8,-1.9 c-1.2,1.9 -2.5,3.9 -3.6,6 c-1.2,2.1 -2.3,4.2 -3.4,6.2 m25.6,-27.1 c2.4,2.6 4.7,5.4 6.9,8.3 c-2.3,-.1 -4.6,-.2 -6.9,-.2 c-2.3,0 -4.6,.1 -6.9,.2 c2.2,-2.9 4.5,-5.7 6.9,-8.3 m22.2,21 l-3.6,-6 c3.8,.5 7.4,1.1 10.8,1.9 c-1.1,3.3 -2.3,6.8 -3.8,10.3 c-1.1,-2.1 -2.2,-4.2 -3.4,-6.2 m-54.5,-16.2 c-1.7,-10.5 -.3,-17.9 3.8,-20.3 c1,-.6 2.2,-.9 3.5,-.9 c6,0 13.5,4.9 21,12.3 c-3.5,3.8 -7,8.2 -10.4,13 c-5.8,.5 -11.3,1.4 -16.5,2.5 c-.6,-2.3 -1,-4.5 -1.4,-6.6 m-24.7,29 c0,-4.7 5.7,-9.7 15.7,-13.4 c2,-.8 4.2,-1.5 6.4,-2.1 c1.6,5 3.6,10.3 6,15.6 c-2.4,5.3 -4.5,10.5 -6,15.5 c-13.8,-4 -22.1,-10 -22.1,-15.6 m28.5,49.3 c-4.1,-2.4 -5.5,-9.8 -3.8,-20.3 c.3,-2.1 .8,-4.3 1.4,-6.6 c5.2,1.2 10.7,2 16.5,2.5 c3.4,4.8 6.9,9.1 10.4,13 c-7.4,7.3 -14.9,12.3 -21,12.3 c-1.3,0 -2.5,-.3 -3.5,-.9 m60.8,-20.3 c1.7,10.5 .3,17.9 -3.8,20.3 c-1,.6 -2.2,.9 -3.5,.9 c-6,0 -13.5,-4.9 -21,-12.3 c3.5,-3.8 7,-8.2 10.4,-13 c5.8,-.5 11.3,-1.4 16.5,-2.5 c.6,2.3 1,4.5 1.4,6.6 m9,-15.6 c-2,.8 -4.2,1.5 -6.4,2.1 c-1.6,-5 -3.6,-10.3 -6,-15.6 c2.4,-5.3 4.5,-10.5 6,-15.5 c13.8,4 22.1,10 22.1,15.6 c0,4.7 -5.8,9.7 -15.7,13.4  z "></path></g></svg>
